<svg width="155" height="40" viewBox="0 0 155 40" fill="none" xmlns="http://www.w3.org/2000/svg">
<path fill-rule="evenodd" clip-rule="evenodd" d="M20 40C31.0457 40 40 31.0457 40 20C40 8.9543 31.0457 0 20 0C8.95428 0 0 8.9543 0 20C0 31.0457 8.95428 40 20 40ZM26.2393 9.3168C26.543 8.2381 25.4961 7.6001 24.54 8.2813L11.1931 17.7896C10.1562 18.5283 10.3193 20 11.4381 20H14.9527V19.9728H21.8025L16.2212 21.9421L13.7607 30.6832C13.457 31.762 14.5038 32.3999 15.46 31.7187L28.8069 22.2105C29.8438 21.4718 29.6806 20 28.5619 20H23.2321L26.2393 9.3168Z" fill="#CD9F69"/>
<path d="M128.997 12.8721C129.445 13.2827 129.986 13.4881 130.621 13.4881C131.274 13.4881 131.815 13.2827 132.245 12.8721C132.674 12.4614 132.889 11.9201 132.889 11.2481C132.889 10.5761 132.674 10.0347 132.245 9.62406C131.815 9.21336 131.274 9.00806 130.621 9.00806C129.986 9.00806 129.445 9.21336 128.997 9.62406C128.567 10.0347 128.353 10.5761 128.353 11.2481C128.353 11.9201 128.567 12.4614 128.997 12.8721Z" fill="white"/>
<path fill-rule="evenodd" clip-rule="evenodd" d="M61.984 28.3841C61.1067 28.7947 60.08 29.0001 58.904 29.0001H50V9.40015H58.792C59.9867 9.40015 61.0227 9.60545 61.9 10.0161C62.796 10.4081 63.4867 10.9774 63.972 11.7241C64.476 12.4521 64.728 13.3294 64.728 14.3561V14.6361C64.728 15.5321 64.56 16.2694 64.224 16.8481C63.888 17.4081 63.4867 17.8467 63.02 18.1641C62.572 18.4627 62.1427 18.6774 61.732 18.8081V19.3121C62.1427 19.4241 62.5907 19.6387 63.076 19.9561C63.5613 20.2547 63.972 20.6934 64.308 21.2721C64.6627 21.8507 64.84 22.6067 64.84 23.5401V23.8201C64.84 24.9027 64.588 25.8361 64.084 26.6201C63.58 27.3854 62.88 27.9734 61.984 28.3841ZM60.416 21.4121C59.9307 21.0201 59.2773 20.8241 58.456 20.8241H53.696V25.6401H58.456C59.2587 25.6401 59.9027 25.4441 60.388 25.0521C60.892 24.6601 61.144 24.1001 61.144 23.3721V23.0921C61.144 22.3641 60.9013 21.8041 60.416 21.4121ZM60.304 13.3481C59.8187 12.9561 59.184 12.7601 58.4 12.7601H53.696V17.4641H58.4C59.1653 17.4641 59.7907 17.2681 60.276 16.8761C60.78 16.4841 61.032 15.9427 61.032 15.2521V14.9721C61.032 14.2627 60.7893 13.7214 60.304 13.3481Z" fill="white"/>
<path fill-rule="evenodd" clip-rule="evenodd" d="M73.1755 29.3921C71.7941 29.3921 70.5528 29.1121 69.4515 28.5521C68.3501 27.9921 67.4821 27.1801 66.8475 26.1161C66.2128 25.0521 65.8955 23.7734 65.8955 22.2801V21.8321C65.8955 20.3387 66.2128 19.0601 66.8475 17.9961C67.4821 16.9321 68.3501 16.1201 69.4515 15.5601C70.5528 15.0001 71.7941 14.7201 73.1755 14.7201C74.5568 14.7201 75.7981 15.0001 76.8995 15.5601C78.0008 16.1201 78.8688 16.9321 79.5035 17.9961C80.1381 19.0601 80.4555 20.3387 80.4555 21.8321V22.2801C80.4555 23.7734 80.1381 25.0521 79.5035 26.1161C78.8688 27.1801 78.0008 27.9921 76.8995 28.5521C75.7981 29.1121 74.5568 29.3921 73.1755 29.3921ZM73.1755 26.2561C74.2581 26.2561 75.1541 25.9107 75.8635 25.2201C76.5728 24.5107 76.9275 23.5027 76.9275 22.1961V21.9161C76.9275 20.6094 76.5728 19.6107 75.8635 18.9201C75.1728 18.2107 74.2768 17.8561 73.1755 17.8561C72.0928 17.8561 71.1968 18.2107 70.4875 18.9201C69.7781 19.6107 69.4235 20.6094 69.4235 21.9161V22.1961C69.4235 23.5027 69.7781 24.5107 70.4875 25.2201C71.1968 25.9107 72.0928 26.2561 73.1755 26.2561Z" fill="white"/>
<path d="M93.6695 29C92.7548 29 92.0082 28.72 91.4295 28.16C90.8695 27.5813 90.5895 26.816 90.5895 25.864V18.024H87.1175V15.112H90.5895V10.8H94.1175V15.112H97.9255V18.024H94.1175V25.248C94.1175 25.808 94.3788 26.088 94.9015 26.088H97.5895V29H93.6695Z" fill="white"/>
<path d="M101.035 28.2161C102.192 29.0001 103.676 29.3921 105.487 29.3921C107.26 29.3921 108.67 29.0001 109.715 28.2161C110.779 27.4134 111.311 26.2841 111.311 24.8281C111.311 23.8574 111.059 23.0921 110.555 22.5321C110.07 21.9534 109.398 21.5147 108.539 21.2161C107.699 20.8987 106.756 20.6467 105.711 20.4601L104.927 20.3201C104.292 20.2081 103.788 20.0494 103.415 19.8441C103.042 19.6201 102.855 19.2841 102.855 18.8361C102.855 18.4254 103.032 18.1081 103.387 17.8841C103.742 17.6414 104.255 17.5201 104.927 17.5201C105.599 17.5201 106.159 17.6694 106.607 17.9681C107.074 18.2667 107.382 18.7707 107.531 19.4801L110.807 18.4721C110.49 17.3521 109.818 16.4467 108.791 15.7561C107.764 15.0654 106.476 14.7201 104.927 14.7201C103.284 14.7201 101.959 15.0934 100.951 15.8401C99.943 16.5681 99.439 17.6227 99.439 19.0041C99.439 19.9187 99.6817 20.6654 100.167 21.2441C100.652 21.8227 101.296 22.2801 102.099 22.6161C102.902 22.9334 103.788 23.1854 104.759 23.3721L105.543 23.5121C106.364 23.6614 106.962 23.8574 107.335 24.1001C107.708 24.3241 107.895 24.6507 107.895 25.0801C107.895 25.5094 107.699 25.8734 107.307 26.1721C106.915 26.4521 106.308 26.5921 105.487 26.5921C104.946 26.5921 104.442 26.5174 103.975 26.3681C103.527 26.2001 103.144 25.9294 102.827 25.5561C102.528 25.1827 102.314 24.6694 102.183 24.0161L98.935 24.8561C99.1777 26.3121 99.8777 27.4321 101.035 28.2161Z" fill="white"/>
<path d="M117.427 18.9481C116.829 19.6574 116.531 20.6561 116.531 21.9441V29.0001H113.003V9.40015H116.531V16.8201H117.035C117.184 16.5214 117.417 16.2227 117.735 15.9241C118.052 15.6254 118.472 15.3827 118.995 15.1961C119.536 14.9907 120.217 14.8881 121.039 14.8881C122.121 14.8881 123.064 15.1401 123.867 15.6441C124.688 16.1294 125.323 16.8107 125.771 17.6881C126.219 18.5467 126.443 19.5547 126.443 20.7121V29.0001H122.915V20.9921C122.915 19.9467 122.653 19.1627 122.131 18.6401C121.627 18.1174 120.899 17.8561 119.947 17.8561C118.864 17.8561 118.024 18.2201 117.427 18.9481Z" fill="white"/>
<path d="M148.496 28.1601C147.936 27.5814 147.656 26.8161 147.656 25.8641V18.0241H140.718V29.0001H137.19V18.0241H133.662V15.1121H137.19V12.5361C137.19 11.5841 137.47 10.8281 138.03 10.2681C138.609 9.68945 139.355 9.40015 140.27 9.40015H143.91V12.3121H141.502C140.979 12.3121 140.718 12.5921 140.718 13.1521V15.1121H147.656V10.8001H151.184V15.1121H154.992V18.0241H151.184V25.2481C151.184 25.8081 151.445 26.0881 151.968 26.0881H154.656V29.0001H150.736C149.821 29.0001 149.075 28.7201 148.496 28.1601Z" fill="white"/>
<path d="M128.857 15.1121V29.0001H132.385V15.1121H128.857Z" fill="white"/>
<path d="M82.312 9.40015V29.0001H85.84V9.40015H82.312Z" fill="white"/>
</svg>
