<svg width="242" height="48" viewBox="0 0 242 48" fill="none" xmlns="http://www.w3.org/2000/svg">
<g clip-path="url(#clip0_64_83)">
<path fill-rule="evenodd" clip-rule="evenodd" d="M12.8841 4.30945L5.9999 8.28519L12.889 12.2618L19.7752 8.28605L12.8841 4.30945ZM21.776 11.7497L14.889 15.7259L14.8883 23.6791L21.776 19.702V11.7497ZM23.776 23.1661L16.8881 27.1433L23.777 31.1198L30.6641 27.1435L23.776 23.1661ZM32.6639 30.6077L25.7771 34.5838V42.536L32.6639 38.5599V30.6077ZM21.7771 42.5364V34.5839L14.888 30.6073V38.5598L21.7771 42.5364ZM10.8883 23.6795L4 19.702V11.7494L10.889 15.7259L10.8883 23.6795ZM10.888 28.2982L1.49986 22.8773C0.571733 22.3414 0 21.3511 0 20.2793V8.28562C0 7.57118 0.381106 6.91099 0.999789 6.55369L11.3836 0.556892C12.3117 0.0209294 13.4552 0.0207382 14.3834 0.556387L24.7756 6.55336C25.3946 6.91056 25.776 7.57094 25.776 8.28562V19.702L35.664 25.4116C36.2828 25.7689 36.6639 26.4291 36.6639 27.1436V39.1373C36.6639 40.2091 36.0921 41.1994 35.1639 41.7353L24.7771 47.7322C24.1584 48.0894 23.3961 48.0894 22.7773 47.7323L12.3882 41.7354C11.4599 41.1996 10.888 40.2091 10.888 39.1372V28.2982Z" fill="#CD9F69"/>
<path d="M47 32.9999V12.5879H57.024C59.096 12.5879 60.6547 13.0732 61.7 14.0439C62.7453 14.9959 63.268 16.2559 63.268 17.8239C63.268 18.8692 62.9973 19.8026 62.456 20.6239C61.9333 21.4452 61.1773 21.9959 60.188 22.2759V22.4999C61.364 22.7426 62.26 23.2932 62.876 24.1519C63.5107 24.9919 63.828 25.9906 63.828 27.1479C63.828 29.0706 63.184 30.5266 61.896 31.5159C60.6267 32.5052 58.8253 32.9999 56.492 32.9999H47ZM51.228 20.9599H55.988C56.996 20.9599 57.724 20.7266 58.172 20.2599C58.6387 19.7932 58.872 19.1866 58.872 18.4399C58.872 17.5999 58.592 16.9746 58.032 16.5639C57.4907 16.1346 56.7627 15.9199 55.848 15.9199H51.228V20.9599ZM51.228 29.6399H56.016C57.1733 29.6399 58.0227 29.3879 58.564 28.8839C59.1053 28.3799 59.376 27.7172 59.376 26.8959C59.376 25.9626 59.0867 25.2812 58.508 24.8519C57.948 24.4039 57.1733 24.1799 56.184 24.1799H51.228V29.6399Z" fill="white"/>
<path d="M70.9148 33.2519C69.1788 33.2519 67.8535 32.7479 66.9388 31.7399C66.0242 30.7319 65.5668 29.2666 65.5668 27.3439V17.9919H69.6828V26.2519C69.6828 27.4466 69.8975 28.3612 70.3268 28.9959C70.7748 29.6119 71.5122 29.9199 72.5388 29.9199C73.5842 29.9199 74.3868 29.5652 74.9468 28.8559C75.5255 28.1279 75.8148 27.2692 75.8148 26.2799V17.9919H79.9308V32.9999H75.9828L75.8148 30.2559H75.6188C75.2642 31.2266 74.6575 31.9732 73.7988 32.4959C72.9588 32.9999 71.9975 33.2519 70.9148 33.2519Z" fill="white"/>
<path d="M82.7562 16.0599V12.5879H86.8722V16.0599H82.7562ZM82.7562 32.9999V17.9919H86.8722V32.9999H82.7562Z" fill="white"/>
<path d="M89.8525 32.9999V12.5879H93.9685V32.9999H89.8525Z" fill="white"/>
<path d="M102.045 33.2519C100.253 33.2519 98.806 32.6079 97.7047 31.3199C96.6034 30.0132 96.0527 28.0719 96.0527 25.4959C96.0527 22.9012 96.6034 20.9599 97.7047 19.6719C98.806 18.3652 100.253 17.7119 102.045 17.7119C103.202 17.7119 104.191 17.9732 105.013 18.4959C105.853 19.0186 106.45 19.7186 106.805 20.5959H107.029V12.5879H111.145V32.9999H107.169L107.029 30.3679H106.805C106.45 31.2266 105.853 31.9266 105.013 32.4679C104.191 32.9906 103.202 33.2519 102.045 33.2519ZM103.613 29.9199C104.378 29.9199 105.003 29.7426 105.489 29.3879C105.993 29.0332 106.366 28.5759 106.609 28.0159C106.851 27.4372 106.973 26.8306 106.973 26.1959V24.7679C106.973 24.1146 106.851 23.5079 106.609 22.9479C106.366 22.3879 105.993 21.9306 105.489 21.5759C105.003 21.2212 104.378 21.0439 103.613 21.0439C102.605 21.0439 101.793 21.4079 101.177 22.1359C100.561 22.8452 100.253 23.9652 100.253 25.4959C100.253 27.0079 100.561 28.1279 101.177 28.8559C101.793 29.5652 102.605 29.9199 103.613 29.9199Z" fill="white"/>
<path d="M114.107 16.0599V12.5879H118.223V16.0599H114.107ZM114.107 32.9999V17.9919H118.223V32.9999H114.107Z" fill="white"/>
<path d="M121.204 32.9999V17.9919H125.152L125.32 20.7079H125.488C125.898 19.7186 126.533 18.9719 127.392 18.4679C128.25 17.9639 129.212 17.7119 130.276 17.7119C131.284 17.7119 132.18 17.9172 132.964 18.3279C133.766 18.7386 134.401 19.4012 134.868 20.3159C135.334 21.2119 135.568 22.4159 135.568 23.9279V32.9999H131.452V24.8239C131.452 23.5546 131.228 22.6119 130.78 21.9959C130.332 21.3799 129.613 21.0719 128.624 21.0719C127.56 21.0719 126.738 21.4359 126.16 22.1639C125.6 22.8732 125.32 23.7039 125.32 24.6559V32.9999H121.204Z" fill="white"/>
<path d="M141.806 37.6758C140.088 37.6758 138.819 37.3865 137.998 36.8078C137.195 36.2292 136.794 35.4545 136.794 34.4838C136.794 33.6625 137.092 32.9998 137.69 32.4958C138.287 31.9918 138.968 31.7025 139.734 31.6278V31.4039C139.136 31.2171 138.66 30.9092 138.306 30.4799C137.97 30.0319 137.802 29.5279 137.802 28.9679C137.802 28.2959 138.026 27.7266 138.474 27.2599C138.94 26.7746 139.547 26.4479 140.294 26.2799V25.9999C139.659 25.6452 139.146 25.1599 138.754 24.5439C138.38 23.9279 138.194 23.1999 138.194 22.3599C138.194 20.9599 138.754 19.8399 139.874 18.9999C141.012 18.1412 142.534 17.7119 144.438 17.7119C144.755 17.7119 145.082 17.7399 145.418 17.7959C145.772 17.8332 146.099 17.8986 146.398 17.9919C146.659 16.9279 147.228 16.0972 148.106 15.4999C148.983 14.8839 150.131 14.5666 151.55 14.5479V17.7399C150.84 17.7212 150.206 17.8052 149.646 17.9919C149.086 18.1599 148.656 18.4306 148.358 18.8039C149.03 19.1212 149.58 19.6252 150.01 20.3159C150.439 20.9879 150.654 21.7626 150.654 22.6399C150.654 24.0212 150.103 25.1226 149.002 25.9439C147.919 26.7652 146.379 27.1759 144.382 27.1759C144.008 27.1759 143.635 27.1572 143.262 27.1199C142.888 27.0826 142.524 27.0266 142.17 26.9519C141.871 26.9706 141.628 27.0732 141.442 27.2599C141.274 27.4279 141.19 27.6426 141.19 27.9039C141.19 28.2586 141.386 28.4919 141.778 28.6039C142.188 28.6972 142.646 28.7439 143.15 28.7439H146.79C148.544 28.7439 149.832 29.0892 150.654 29.7799C151.494 30.4519 151.932 31.4506 151.97 32.7759C152.007 33.8959 151.774 34.8106 151.27 35.5199C150.784 36.2479 150.094 36.7892 149.198 37.1439C148.302 37.4986 147.266 37.6758 146.09 37.6758H141.806ZM144.466 24.5999C145.231 24.5999 145.819 24.4039 146.23 24.0119C146.64 23.6012 146.846 23.0786 146.846 22.4439C146.846 21.7532 146.622 21.2212 146.174 20.8479C145.726 20.4746 145.147 20.2879 144.438 20.2879C143.691 20.2879 143.103 20.4932 142.674 20.9039C142.244 21.3146 142.03 21.8279 142.03 22.4439C142.03 23.1159 142.254 23.6479 142.702 24.0399C143.15 24.4132 143.738 24.5999 144.466 24.5999ZM142.422 35.3799H146.034C147.284 35.3799 147.91 34.9039 147.91 33.9519C147.91 33.4106 147.732 33.0652 147.378 32.9159C147.023 32.7479 146.612 32.6638 146.146 32.6638H141.554C141.199 32.7385 140.91 32.8972 140.686 33.1399C140.462 33.3826 140.35 33.6719 140.35 34.0079C140.35 34.4746 140.527 34.8198 140.882 35.0438C141.255 35.2679 141.768 35.3799 142.422 35.3799Z" fill="white"/>
<path d="M153.973 32.9999V12.5879H163.997C166.069 12.5879 167.628 13.0732 168.673 14.0439C169.718 14.9959 170.241 16.2559 170.241 17.8239C170.241 18.8692 169.97 19.8026 169.429 20.6239C168.906 21.4452 168.15 21.9959 167.161 22.2759V22.4999C168.337 22.7426 169.233 23.2932 169.849 24.1519C170.484 24.9919 170.801 25.9906 170.801 27.1479C170.801 29.0706 170.157 30.5266 168.869 31.5159C167.6 32.5052 165.798 32.9999 163.465 32.9999H153.973ZM158.201 20.9599H162.961C163.969 20.9599 164.697 20.7266 165.145 20.2599C165.612 19.7932 165.845 19.1866 165.845 18.4399C165.845 17.5999 165.565 16.9746 165.005 16.5639C164.464 16.1346 163.736 15.9199 162.821 15.9199H158.201V20.9599ZM158.201 29.6399H162.989C164.146 29.6399 164.996 29.3879 165.537 28.8839C166.078 28.3799 166.349 27.7172 166.349 26.8959C166.349 25.9626 166.06 25.2812 165.481 24.8519C164.921 24.4039 164.146 24.1799 163.157 24.1799H158.201V29.6399Z" fill="white"/>
<path d="M172.953 32.9999V12.5879H177.069V32.9999H172.953Z" fill="white"/>
<path d="M186.686 33.2519C185.192 33.2519 183.876 32.9439 182.738 32.3279C181.599 31.7119 180.712 30.8252 180.078 29.6679C179.462 28.5106 179.154 27.1199 179.154 25.4959C179.154 23.9466 179.452 22.5932 180.05 21.4359C180.647 20.2599 181.506 19.3452 182.626 18.6919C183.746 18.0386 185.099 17.7119 186.686 17.7119C188.179 17.7119 189.486 18.0199 190.606 18.6359C191.744 19.2519 192.622 20.1479 193.238 21.3239C193.872 22.4812 194.19 23.8719 194.19 25.4959C194.19 27.0452 193.891 28.4079 193.294 29.5839C192.696 30.7412 191.838 31.6466 190.718 32.2999C189.616 32.9346 188.272 33.2519 186.686 33.2519ZM186.658 29.9199C187.666 29.9199 188.478 29.5559 189.094 28.8279C189.71 28.0999 190.018 26.9892 190.018 25.4959C190.018 24.0026 189.719 22.8919 189.122 22.1639C188.524 21.4359 187.712 21.0719 186.686 21.0719C185.659 21.0719 184.838 21.4359 184.222 22.1639C183.606 22.8919 183.298 24.0026 183.298 25.4959C183.298 26.9706 183.596 28.0812 184.194 28.8279C184.81 29.5559 185.631 29.9199 186.658 29.9199Z" fill="white"/>
<path d="M203.077 33.2519C201.583 33.2519 200.277 32.9346 199.157 32.2999C198.037 31.6466 197.169 30.7412 196.553 29.5839C195.937 28.4079 195.629 27.0452 195.629 25.4959C195.629 23.9279 195.937 22.5652 196.553 21.4079C197.187 20.2319 198.074 19.3266 199.213 18.6919C200.351 18.0386 201.686 17.7119 203.217 17.7119C204.505 17.7119 205.653 17.9546 206.661 18.4399C207.669 18.9252 208.462 19.5972 209.041 20.4559C209.638 21.3146 209.965 22.3132 210.021 23.4519H205.989C205.858 22.6679 205.531 22.0799 205.009 21.6879C204.486 21.2772 203.851 21.0719 203.105 21.0719C202.022 21.0719 201.201 21.4732 200.641 22.2759C200.081 23.0786 199.801 24.1519 199.801 25.4959C199.801 26.9706 200.099 28.0719 200.697 28.7999C201.313 29.5279 202.106 29.8919 203.077 29.8919C203.954 29.8919 204.645 29.6679 205.149 29.2199C205.671 28.7719 205.97 28.1839 206.045 27.4559H210.049C209.993 28.6319 209.657 29.6586 209.041 30.5359C208.443 31.3946 207.631 32.0666 206.605 32.5519C205.578 33.0186 204.402 33.2519 203.077 33.2519Z" fill="white"/>
<path d="M212.016 32.9999V12.5879H216.188V24.2079L217.42 22.7799L221.872 17.9919H226.94L221.172 23.9279L227.052 32.9999H222.208L219.156 28.2399L218.26 26.6719L216.188 28.7159V32.9999H212.016Z" fill="white"/>
<path d="M234.265 33.2799C232.081 33.2799 230.391 32.8226 229.197 31.9079C228.021 30.9746 227.442 29.7612 227.461 28.2679H231.493C231.511 29.0706 231.791 29.6492 232.333 30.0039C232.893 30.3399 233.574 30.5079 234.377 30.5079C235.217 30.5079 235.851 30.3679 236.281 30.0879C236.71 29.7892 236.925 29.3879 236.925 28.8839C236.925 28.1932 236.673 27.7452 236.169 27.5399C235.683 27.3346 234.909 27.1572 233.845 27.0079C232.743 26.8586 231.735 26.6439 230.821 26.3639C229.906 26.0652 229.178 25.6172 228.637 25.0199C228.114 24.4226 227.853 23.5732 227.853 22.4719C227.853 20.8852 228.45 19.6999 229.645 18.9159C230.858 18.1132 232.445 17.7119 234.405 17.7119C236.327 17.7119 237.858 18.1319 238.997 18.9719C240.135 19.7932 240.723 20.9506 240.761 22.4439H236.729C236.729 21.8092 236.505 21.3239 236.057 20.9879C235.627 20.6519 235.039 20.4839 234.293 20.4839C233.527 20.4839 232.949 20.6332 232.557 20.9319C232.165 21.2119 231.969 21.5852 231.969 22.0519C231.969 22.6119 232.221 23.0039 232.725 23.2279C233.229 23.4519 234.031 23.6386 235.133 23.7879C235.917 23.8999 236.663 24.0399 237.373 24.2079C238.082 24.3572 238.707 24.5999 239.249 24.9359C239.809 25.2532 240.247 25.7012 240.565 26.2799C240.901 26.8399 241.069 27.5772 241.069 28.4919C241.069 30.1346 240.462 31.3479 239.249 32.1319C238.035 32.8972 236.374 33.2799 234.265 33.2799Z" fill="white"/>
</g>
<defs>
<clipPath id="clip0_64_83">
<rect width="242" height="48" fill="white"/>
</clipPath>
</defs>
</svg>
