<svg width="152" height="40" viewBox="0 0 152 40" fill="none" xmlns="http://www.w3.org/2000/svg">
<path opacity="0.3" d="M20.0001 0C8.9543 0 0 8.9543 0 20.0001C0 31.0458 8.9543 40.0002 20.0001 40.0002C29.9101 40.0002 38.1367 32.7925 39.7236 23.3334H39.5801C38.0999 29.0842 32.8796 33.3335 26.6668 33.3335C19.303 33.3335 13.3334 27.3639 13.3334 20.0001C13.3334 12.6362 19.303 6.6667 26.6668 6.6667C32.8796 6.6667 38.0999 10.9159 39.5801 16.6667H39.7236C38.1367 7.2076 29.9101 0 20.0001 0Z" fill="white"/>
<path d="M0 20.0001C0 8.9543 8.95434 0 20.0001 0C29.9101 0 38.1367 7.2076 39.7236 16.6667H26.2467C24.7666 10.9159 19.5462 6.6667 13.3334 6.6667C5.96956 6.6667 0 12.6363 0 20.0001Z" fill="#CD9F69"/>
<path d="M0 20.0002C0 31.0459 8.95434 40.0002 20.0001 40.0002C29.9101 40.0002 38.1367 32.7926 39.7236 23.3335H26.2467C24.7666 29.0843 19.5462 33.3336 13.3334 33.3336C5.96956 33.3336 0 27.364 0 20.0002Z" fill="#CD9F69"/>
<path fill-rule="evenodd" clip-rule="evenodd" d="M65.8174 16.7018H69.7498L69.7322 16.5867C69.0852 12.3512 64.9152 9.30981 60.2084 9.30981C54.3513 9.30981 49.9004 13.8514 49.9004 19.8208C49.9004 25.8186 54.3508 30.3898 60.2084 30.3898C65.0366 30.3898 68.9681 27.3152 69.7897 22.8549L69.8115 22.7368H65.8431L65.8243 22.8128C65.2279 25.227 62.924 26.8838 60.2084 26.8838C56.4708 26.8838 53.6094 23.832 53.6094 19.8208C53.6094 15.8394 56.4701 12.8158 60.2084 12.8158C62.8971 12.8158 65.1437 14.3879 65.7964 16.6298L65.8174 16.7018Z" fill="white"/>
<path fill-rule="evenodd" clip-rule="evenodd" d="M86.3746 30.0998V15.7188H82.9266V18.0112C81.8729 16.3716 80.1716 15.4288 77.9806 15.4288C74.1185 15.4288 71.0946 18.7588 71.0946 22.8948C71.0946 27.0303 74.1181 30.3898 77.9806 30.3898C80.1716 30.3898 81.8729 29.4471 82.9266 27.8074V30.0998H86.3746ZM78.6766 27.1158C76.3257 27.1158 74.4846 25.2475 74.4846 22.8948C74.4846 20.5716 76.3253 18.7028 78.6766 18.7028C81.0868 18.7028 82.8976 20.5145 82.8976 22.8948C82.8976 25.3046 81.0864 27.1158 78.6766 27.1158Z" fill="white"/>
<path fill-rule="evenodd" clip-rule="evenodd" d="M93.7785 24.6058V18.9928H97.4905V15.7188H93.7785V11.9198H90.3305V15.7188H87.6335V18.9928H90.3305V24.6638C90.3305 26.4811 90.8584 27.8863 91.7947 28.8375C92.731 29.7887 94.064 30.2738 95.6505 30.2738C96.177 30.2738 96.9103 30.2155 97.4134 30.0972L97.4905 30.079V26.8819L97.3642 26.9163C97.0573 27 96.6903 27.0288 96.3465 27.0288C95.5771 27.0288 94.937 26.8505 94.4905 26.4658C94.0466 26.0834 93.7785 25.4836 93.7785 24.6058Z" fill="white"/>
<path fill-rule="evenodd" clip-rule="evenodd" d="M113.053 30.0998V15.7188H109.605V18.0112C108.552 16.3716 106.85 15.4288 104.659 15.4288C100.797 15.4288 97.7735 18.7588 97.7735 22.8948C97.7735 27.0303 100.797 30.3898 104.659 30.3898C106.85 30.3898 108.552 29.4471 109.605 27.8074V30.0998H113.053ZM105.355 27.1158C103.005 27.1158 101.163 25.2475 101.163 22.8948C101.163 20.5716 103.004 18.7028 105.355 18.7028C107.766 18.7028 109.576 20.5145 109.576 22.8948C109.576 25.3046 107.765 27.1158 105.355 27.1158Z" fill="white"/>
<path fill-rule="evenodd" clip-rule="evenodd" d="M119.094 30.0999V9.59985H115.675V30.0999H119.094Z" fill="white"/>
<path fill-rule="evenodd" clip-rule="evenodd" d="M140.727 30.6538H137.309L137.313 30.7582C137.402 32.7856 138.493 34.1043 139.916 34.9117C141.335 35.7166 143.086 36.0158 144.518 36.0158C146.597 36.0158 148.426 35.3937 149.738 34.2624C151.052 33.1299 151.839 31.4924 151.839 29.4778V28.6788H151.868V15.7188H148.42V17.934C147.366 16.3452 145.664 15.4288 143.474 15.4288C139.615 15.4288 136.588 18.6691 136.588 22.6918C136.588 26.714 139.614 29.9838 143.474 29.9838C145.664 29.9838 147.366 29.0675 148.42 27.4544L148.391 29.5938C148.391 31.7002 146.623 33.1188 144.431 33.1188C143.429 33.1188 142.521 32.8968 141.855 32.4883C141.192 32.0811 140.773 31.4918 140.732 30.7483L140.727 30.6538ZM144.17 26.7968C141.817 26.7968 139.978 24.9553 139.978 22.6918C139.978 20.4293 141.816 18.6158 144.17 18.6158C146.583 18.6158 148.391 20.3722 148.391 22.6918C148.391 25.0124 146.582 26.7968 144.17 26.7968Z" fill="white"/>
<path fill-rule="evenodd" clip-rule="evenodd" d="M135.22 15.5639L135.268 15.4298H131.53L131.5 15.4694C130.747 16.4612 129.557 17.0866 128.209 17.0866C126.843 17.0866 125.666 16.4612 124.927 15.4701L124.897 15.4298H121.175L121.223 15.5636C122.252 18.4301 124.938 20.3896 128.209 20.3896C131.479 20.3896 134.182 18.4304 135.22 15.5639Z" fill="white"/>
<path fill-rule="evenodd" clip-rule="evenodd" d="M132.09 30.3898H135.54L135.555 30.3072C135.634 29.8606 135.675 29.3983 135.675 28.9236C135.675 24.6634 132.411 21.4286 128.209 21.4286C124.006 21.4286 120.772 24.6639 120.772 28.9236C120.772 29.3982 120.812 29.8605 120.891 30.3071L120.905 30.3898H124.349L124.308 30.2595C124.175 29.843 124.104 29.3943 124.104 28.9236C124.104 26.5402 125.889 24.7026 128.209 24.7026C130.501 24.7026 132.343 26.5415 132.343 28.9236C132.343 29.394 132.269 29.8424 132.133 30.2588L132.09 30.3898Z" fill="white"/>
</svg>
