<svg width="208" height="48" viewBox="0 0 208 48" fill="none" xmlns="http://www.w3.org/2000/svg">
<path d="M39.9912 23.4176C39.683 12.6413 30.8504 4 19.9995 4C16.5631 4 13.3292 4.86666 10.5043 6.39332L39.9912 23.4176Z" fill="#CD9F69"/>
<path d="M7.69232 8.23389C6.86455 8.88097 6.08905 9.59182 5.3732 10.3591L39.1307 29.849C39.4341 28.8553 39.6622 27.8288 39.8084 26.7762L7.69232 8.23389Z" fill="#CD9F69"/>
<path d="M34.6261 37.6406C33.9103 38.4078 33.1348 39.1187 32.3071 39.7658L0.190704 21.2234C0.336911 20.1707 0.565052 19.1442 0.868479 18.1506L34.6261 37.6406Z" fill="#CD9F69"/>
<path d="M36.523 35.2717L1.97388 15.3247C2.41053 14.4191 2.91341 13.5514 3.47624 12.728L38.0253 32.6749C37.5887 33.5805 37.0858 34.4482 36.523 35.2717Z" fill="#CD9F69"/>
<path d="M19.9995 44C23.4361 44 26.6702 43.1333 29.4952 41.6064L0.0078125 24.5819C0.315709 35.3585 9.14844 44 19.9995 44Z" fill="#CD9F69"/>
<path d="M74.757 24.45C74.757 23 73.957 22.05 72.757 22.05C71.482 22.05 70.482 22.75 69.382 24.55V33H58.925C53.5 33 50 29.675 50 24.275C50 18.875 53.5 15.55 58.925 15.55H63.125V18.925H58.925C56 18.925 54.25 20.875 54.25 24.275C54.25 27.675 56 29.625 58.925 29.625H65.482V14.5H69.382V20.625C70.557 19.325 72.057 18.8 73.557 18.8C76.732 18.8 78.657 20.95 78.657 24.2V33H74.757V24.45Z" fill="white"/>
<path d="M87.6477 22.05C88.6977 22.05 89.1477 22.9001 89.1477 24.2001V26.0751H93.0727V24.2001C93.0727 20.6501 91.1727 18.8 88.4977 18.8C87.0727 18.8 85.8727 19.425 84.8477 20.65L84.7727 19.1H80.9977V33H84.8977V24.3251C85.9227 22.8251 86.7727 22.05 87.6477 22.05Z" fill="white"/>
<path fill-rule="evenodd" clip-rule="evenodd" d="M101.182 33.3C96.7322 33.3 94.0322 30.575 94.0322 26.05C94.0322 21.525 96.7322 18.8 101.182 18.8C105.632 18.8 108.307 21.525 108.307 26.05C108.307 30.575 105.632 33.3 101.182 33.3ZM97.9322 26.05C97.9322 28.625 99.1572 30.15 101.182 30.15C103.182 30.15 104.407 28.625 104.407 26.05C104.407 23.475 103.182 21.9501 101.182 21.9501C99.1572 21.9501 97.9322 23.475 97.9322 26.05Z" fill="white"/>
<path d="M125.875 22.025C127.2 22.025 128.05 22.875 128.05 24.275V33H131.95V24.275C131.95 20.85 129.725 18.8 126.975 18.8C124.825 18.8 123.2 19.75 122.35 21.225C121.5 19.6751 119.875 18.8 117.975 18.8C116.4 18.8 114.9 19.575 113.95 20.775L113.875 19.1H110.1V33H114V24.175C114.775 22.9 115.775 22.025 116.9 22.025C118.2 22.025 119.075 22.875 119.075 24.275V33H122.975V24.225C123.75 22.925 124.75 22.025 125.875 22.025Z" fill="white"/>
<path fill-rule="evenodd" clip-rule="evenodd" d="M142.582 33L142.507 31.625C141.557 32.825 140.082 33.3 138.357 33.3C135.657 33.3 133.882 31.575 133.882 29.125C133.882 26.25 136.157 24.625 139.907 24.625H142.457V23.675C142.457 22.35 141.532 21.55 139.957 21.55C138.407 21.55 137.407 22.3 137.282 23.525H133.482C133.732 20.6 136.232 18.8 140.132 18.8C143.932 18.8 146.357 20.65 146.357 23.925V33H142.582ZM137.707 28.875C137.707 29.625 138.232 30.225 139.332 30.225C140.682 30.225 141.707 29.55 142.457 28.4V27.3251L139.832 27.35C138.532 27.35 137.707 27.8 137.707 28.875Z" fill="white"/>
<path d="M149.681 28C149.681 30.95 151.531 33 154.356 33H157.856V29.85H155.906C154.206 29.85 153.581 29.45 153.581 28V22.25H156.431V19.1H153.581V14.5H149.681V19.1H147.306V22.25H149.681V28Z" fill="white"/>
<path fill-rule="evenodd" clip-rule="evenodd" d="M165.515 33.3C161.065 33.3 158.365 30.575 158.365 26.05C158.365 21.525 161.065 18.8 165.515 18.8C169.965 18.8 172.64 21.525 172.64 26.05C172.64 30.575 169.965 33.3 165.515 33.3ZM162.265 26.05C162.265 28.625 163.49 30.15 165.515 30.15C167.515 30.15 168.74 28.625 168.74 26.05C168.74 23.475 167.515 21.9501 165.515 21.9501C163.49 21.9501 162.265 23.475 162.265 26.05Z" fill="white"/>
<path fill-rule="evenodd" clip-rule="evenodd" d="M173.783 26.05C173.783 30.575 176.483 33.3 180.933 33.3C185.383 33.3 188.058 30.575 188.058 26.05C188.058 21.525 185.383 18.8 180.933 18.8C176.483 18.8 173.783 21.525 173.783 26.05ZM180.933 30.15C178.908 30.15 177.683 28.625 177.683 26.05C177.683 23.475 178.908 21.9501 180.933 21.9501C182.933 21.9501 184.158 23.475 184.158 26.05C184.158 28.625 182.933 30.15 180.933 30.15Z" fill="white"/>
<path d="M195.435 28.025C195.485 31.3 197.835 33.3 201.66 33.3C205.26 33.3 207.435 31.6 207.435 28.775C207.435 25.3391 204.592 24.8011 202.333 24.3736C200.845 24.0919 199.61 23.8581 199.61 22.875C199.61 22.075 200.26 21.625 201.36 21.625C202.66 21.625 203.51 22.3 203.585 23.525H207.185C206.935 20.55 204.96 18.8 201.485 18.8C198.06 18.8 195.735 20.4 195.735 23.125C195.735 26.3875 198.54 27.043 200.791 27.5693C202.3 27.9221 203.56 28.2167 203.56 29.2001C203.56 30.0001 202.835 30.475 201.66 30.475C199.96 30.475 198.96 29.55 199.035 28.025H195.435Z" fill="white"/>
<path d="M189.876 33V14.5H193.776V33H189.876Z" fill="white"/>
</svg>
