<svg width="192" height="40" viewBox="0 0 192 40" fill="none" xmlns="http://www.w3.org/2000/svg">
<path fill-rule="evenodd" clip-rule="evenodd" d="M35.3721 10V18.0492H25.4023V15.7565L35.3721 10Z" fill="#CD9F69"/>
<path opacity="0.9" fill-rule="evenodd" clip-rule="evenodd" d="M35.3699 10.0001L25.4001 15.7566L18.0488 11.513V0L35.3699 10.0001Z" fill="#CD9F69"/>
<path opacity="0.8" fill-rule="evenodd" clip-rule="evenodd" d="M18.0512 0V11.513L10.7022 15.7566L0.732422 10.0001L18.0512 0Z" fill="#CD9F69"/>
<path opacity="0.7" fill-rule="evenodd" clip-rule="evenodd" d="M10.7002 15.7566V24.2434L0.730469 29.9994V10.0001L10.7002 15.7566Z" fill="#CD9F69"/>
<path opacity="0.6" fill-rule="evenodd" clip-rule="evenodd" d="M18.0492 28.4871V40L0.730469 29.9994L10.7002 24.2434L18.0492 28.4871Z" fill="#CD9F69"/>
<path opacity="0.5" fill-rule="evenodd" clip-rule="evenodd" d="M35.3699 29.9994L18.0488 40V28.4871L25.4001 24.2434L35.3699 29.9994Z" fill="#CD9F69"/>
<path opacity="0.4" fill-rule="evenodd" clip-rule="evenodd" d="M35.3721 21.9507V29.9994L25.4023 24.2434V21.9507H35.3721Z" fill="#CD9F69"/>
<path d="M62.577 22.115C61.794 26.732 58.824 29.4319 54.234 29.4319C48.564 29.4319 45 25.1119 45 19.4419C45 13.7449 48.564 9.39795 54.234 9.39795C58.662 9.39795 61.659 11.9899 62.496 16.4179L58.203 16.6069C57.744 14.2309 56.286 12.8809 54.153 12.8809C50.778 12.8809 49.239 15.716 49.239 19.4419C49.239 23.1409 50.805 25.9489 54.153 25.9489C56.367 25.9489 57.852 24.4909 58.257 21.9259L62.577 22.115Z" fill="white"/>
<path d="M63.7519 19.1178C64.3189 16.0668 66.6679 14.3658 70.4209 14.3658C74.7679 14.3658 77.0089 16.4988 77.0089 20.6028V25.0848C77.0089 26.0298 77.3869 26.2188 77.8999 26.2188H78.4399V28.9999L77.7109 29.0268C76.7659 29.0538 73.9849 29.3238 73.5799 26.8398C72.9049 28.2978 71.2579 29.3238 68.6659 29.3238C65.7769 29.3238 63.5359 27.7578 63.5359 25.2468C63.5359 22.5738 65.5069 21.5748 68.9629 20.8728L72.9049 20.0898C72.8779 18.0108 72.0679 17.0388 70.4209 17.0388C69.0439 17.0388 68.1799 17.7948 67.8559 19.3338L63.7519 19.1178ZM67.7209 25.0848C67.7209 25.9758 68.4769 26.6778 69.9349 26.6778C71.6899 26.6778 72.9589 25.3548 72.9589 22.7898V22.6278L70.5829 23.0598C68.9359 23.3838 67.7209 23.6268 67.7209 25.0848Z" fill="white"/>
<path d="M79.8747 9.82996H83.9787V24.842C83.9787 25.544 84.3567 25.949 85.0587 25.949H86.0847V29.0001H83.8707C81.4947 29.0001 79.8747 27.569 79.8747 25.004V9.82996Z" fill="white"/>
<path d="M86.7412 21.8448C86.7412 17.3088 89.6572 14.3658 94.0852 14.3658C98.0272 14.3658 101.105 17.0928 101.078 22.1418V22.8978H91.0072C91.1152 25.0308 92.2492 26.2998 94.0852 26.2998C95.2732 26.2998 96.3262 25.6248 96.7852 24.5178L100.889 24.8148C100.025 27.5958 97.3522 29.3238 94.0852 29.3238C89.6572 29.3238 86.7412 26.3808 86.7412 21.8448ZM91.0342 20.4408H96.9472C96.7312 18.2808 95.4892 17.3898 94.0852 17.3898C92.3572 17.3898 91.2502 18.5508 91.0342 20.4408Z" fill="white"/>
<path d="M111.375 19.3339C111.159 18.0109 110.025 17.2009 108.783 17.2009C107.568 17.2009 106.623 17.8489 106.677 18.8749C106.731 19.9279 107.946 20.3869 109.296 20.6029C113.508 21.2779 115.587 22.3849 115.587 25.0849C115.587 27.9469 112.887 29.3239 109.215 29.3239C105.03 29.3239 102.357 27.5149 102.141 24.4639L106.245 24.2479C106.488 25.6249 107.487 26.462 109.134 26.462C110.16 26.462 111.402 26.0299 111.402 25.0039C111.375 23.7889 109.998 23.5729 108.621 23.2759C104.679 22.5199 102.465 21.5479 102.465 18.9019C102.465 16.0399 104.868 14.3389 108.945 14.3389C112.563 14.3389 114.993 16.1749 115.479 19.1719L111.375 19.3339Z" fill="white"/>
<path d="M126.796 20.1708C126.553 18.4428 125.419 17.4978 123.988 17.4978C121.963 17.4978 120.829 19.0908 120.829 21.8448C120.829 24.5988 121.963 26.1918 123.988 26.1918C125.5 26.1918 126.607 25.2468 126.85 23.3838L131.062 23.5458C130.684 27.1098 127.795 29.3238 123.988 29.3238C119.56 29.3238 116.644 26.3808 116.644 21.8448C116.644 17.3088 119.56 14.3658 123.988 14.3658C127.687 14.3658 130.603 16.4988 130.981 19.9818L126.796 20.1708Z" fill="white"/>
<path d="M131.806 21.8448C131.806 17.3088 134.722 14.3658 139.15 14.3658C143.092 14.3658 146.17 17.0928 146.143 22.1418V22.8978H136.072C136.18 25.0308 137.314 26.2998 139.15 26.2998C140.338 26.2998 141.391 25.6248 141.85 24.5178L145.954 24.8148C145.09 27.5958 142.417 29.3238 139.15 29.3238C134.722 29.3238 131.806 26.3808 131.806 21.8448ZM136.099 20.4408H142.012C141.796 18.2808 140.554 17.3898 139.15 17.3898C137.422 17.3898 136.315 18.5508 136.099 20.4408Z" fill="white"/>
<path d="M147.67 14.6898H151.342L151.45 16.9848C152.233 15.0948 153.826 14.3658 155.716 14.3658C158.848 14.3658 160.657 16.4718 160.657 19.7928V28.9999H156.58V21.1428C156.58 18.8748 156.067 17.6058 154.393 17.6058C152.665 17.6058 151.774 18.8748 151.774 21.1428V28.9999H147.67V14.6898Z" fill="white"/>
<path d="M172.203 20.1708C171.96 18.4428 170.826 17.4978 169.395 17.4978C167.37 17.4978 166.236 19.0908 166.236 21.8448C166.236 24.5988 167.37 26.1918 169.395 26.1918C170.907 26.1918 172.014 25.2468 172.257 23.3838L176.469 23.5458C176.091 27.1098 173.202 29.3238 169.395 29.3238C164.967 29.3238 162.051 26.3808 162.051 21.8448C162.051 17.3088 164.967 14.3658 169.395 14.3658C173.094 14.3658 176.01 16.4988 176.388 19.9818L172.203 20.1708Z" fill="white"/>
<path d="M177.213 21.8448C177.213 17.3088 180.129 14.3658 184.557 14.3658C188.499 14.3658 191.577 17.0928 191.55 22.1418V22.8978H181.479C181.587 25.0308 182.721 26.2998 184.557 26.2998C185.745 26.2998 186.798 25.6248 187.257 24.5178L191.361 24.8148C190.497 27.5958 187.824 29.3238 184.557 29.3238C180.129 29.3238 177.213 26.3808 177.213 21.8448ZM181.506 20.4408H187.419C187.203 18.2808 185.961 17.3898 184.557 17.3898C182.829 17.3898 181.722 18.5508 181.506 20.4408Z" fill="white"/>
</svg>
